PathFileType	4	(X/Y/Z)	RUN4																																																													
DataRate	CameraRate	NumFrames	NumMarkers	Units	OrigDataRate	OrigDataStartFrame	OrigNumFrames																																																									
72	72	15	21	mm	72	641	854																																																									
Frame#	Time	Hand_Start			Hand_Thumb1			Hand_Thumb2			Hand_Thumb3			Hand_Index1			Hand_Index2			Hand_Index3			Hand_Middle1			Hand_Middle2			Hand_Middle3			Hand_Ring1			Hand_Ring2			Hand_Ring3			Hand_Pinky1			Hand_Pinky2			Hand_Pinky3			Hand_ThumbTip			Hand_IndexTip			Hand_MiddleTip			Hand_RingTip			Hand_PinkyTip		
		X1	Y1	Z1	X2	Y2	Z2	X3	Y3	Z3	X4	Y4	Z4	X5	Y5	Z5	X6	Y6	Z6	X7	Y7	Z7	X8	Y8	Z8	X9	Y9	Z9	X10	Y10	Z10	X11	Y11	Z11	X12	Y12	Z12	X13	Y13	Z13	X14	Y14	Z14	X15	Y15	Z15	X16	Y16	Z16	X17	Y17	Z17	X18	Y18	Z18	X19	Y19	Z19	X20	Y20	Z20	X21	Y21	Z21
																																																																
641	8.888888889	837.8531	11.3461	-3.37784	833.683	39.18004	-46.54106	839.8029	53.79605	-75.89715	855.788	73.78209	-99.29037	836.8049	100.7529	-51.8239	853.8125	108.6339	-85.92677	863.2724	94.94817	-104.5019	855.4066	101.3652	-38.43875	873.67	95.55817	-78.09569	866.9882	68.30299	-74.70107	873.5462	92.44466	-31.60272	886.5119	82.9736	-68.25116	875.6289	58.36976	-63.82238	890.635	78.71461	-26.92336	896.7546	74.44298	-57.54757	885.5033	57.15954	-54.54548	866.7913	86.13992	-118.3797	872.9098	81.27403	-120.2447	852.3733	62.13927	-54.55163	862.6715	56.33974	-42.52107	873.6277	55.40276	-35.4812
642	8.902777778	839.0869	10.47897	-3.488307	834.9109	38.14983	-46.75628	841.0277	52.85597	-76.06786	856.8076	73.01915	-99.44853	837.5028	99.7324	-52.20179	854.6872	107.7141	-86.19241	864.3322	94.10095	-104.7255	856.0435	100.5371	-38.74224	874.5487	94.74742	-78.28958	867.9879	67.47031	-74.83543	874.2275	91.78638	-31.80549	887.3869	82.13055	-68.33658	876.6003	57.49249	-63.86215	891.4091	78.21143	-27.01537	897.6235	73.71712	-57.58849	886.4781	56.37193	-54.54959	867.7525	85.51109	-118.4842	874.1697	80.58214	-120.4792	853.3009	61.31494	-54.7357	863.5325	55.42934	-42.63147	874.5047	54.55804	-35.55168
643	8.916666667	839.7604	9.48894	-4.10322	835.4666	37.26578	-47.29218	841.52	52.10125	-76.55161	857.1311	72.40212	-99.92631	837.8409	98.87135	-52.56743	855.0451	107.0677	-86.49697	864.6742	93.52136	-105.0874	856.4026	99.69127	-39.13753	874.8847	94.12241	-78.72728	868.3617	66.82765	-75.34197	874.6232	90.97278	-32.25607	887.7459	81.40564	-68.82366	876.9951	56.73611	-64.43819	891.8509	77.43323	-27.53293	897.9723	72.878	-58.11604	886.8535	55.511	-55.10322	868.0238	85.01041	-118.9151	874.5266	80.14107	-120.9497	853.7035	60.63128	-55.23385	863.9356	54.53789	-43.21589	874.874	53.58028	-36.12082
644	8.930555556	840.7652	8.698344	-4.384242	836.3752	36.35323	-47.64169	842.4028	51.11933	-76.94165	857.9193	71.41948	-100.3803	838.4249	97.95856	-53.05487	855.6609	106.2167	-86.95324	865.372	92.66675	-105.4983	856.9661	98.90831	-39.60551	875.527	93.36531	-79.16192	869.1556	66.03885	-75.74277	875.2248	90.30306	-32.68304	888.4267	80.70707	-69.21447	877.8265	55.98783	-64.74295	892.5193	76.86663	-27.90896	898.716	72.26753	-58.47007	887.6545	54.86321	-55.4613	868.7802	84.02181	-119.3908	875.319	79.33962	-121.3459	854.5051	59.80968	-55.63935	864.7735	53.78449	-43.51715	875.631	52.89853	-36.5104
645	8.944444444	841.305	8.452058	-4.5225	836.6694	36.03613	-47.79909	842.6344	50.60351	-77.21114	858.1274	70.79303	-100.7605	838.3666	97.64671	-53.28101	855.6049	106.1406	-87.11968	865.3663	92.63098	-105.6677	856.9108	98.72711	-39.84576	875.5304	93.43588	-79.40891	869.3259	66.06114	-76.07043	875.2284	90.24429	-32.92767	888.4631	80.6495	-69.44754	877.9874	55.87721	-64.97671	892.611	76.9223	-28.15257	898.7792	72.21699	-58.70319	887.7976	54.77345	-55.62988	869.0469	83.31227	-119.7928	875.3827	79.40292	-121.5548	854.7028	59.69512	-55.98997	864.9299	53.55334	-43.76638	875.783	52.77407	-36.67682
646	8.958333333	842.3367	8.024395	-4.294036	837.737	35.335	-47.74787	843.757	49.55596	-77.31779	859.3898	69.36306	-101.0984	839.8914	96.8892	-53.67769	857.1418	105.1711	-87.56273	866.6364	91.407	-106.0621	858.5215	97.90403	-40.35671	876.8977	92.27663	-79.98735	870.4469	64.98712	-76.42496	876.8045	89.31166	-33.4823	889.7449	79.28866	-69.99257	879.0295	54.65645	-65.32037	894.098	75.87296	-28.71038	900.0404	70.81813	-59.24992	888.8865	53.50989	-56.03603	870.4574	81.60335	-120.2262	876.4206	77.99476	-121.9394	855.8711	58.91091	-56.22067	866.0367	52.55634	-44.04717	876.9079	51.70983	-37.04012
647	8.972222222	843.0321	7.531166	-4.499045	838.1639	34.73496	-47.99141	844.0521	48.97177	-77.58021	859.507	68.8554	-101.4131	839.8567	96.29226	-54.02767	857.0148	104.7153	-87.92486	866.4858	90.93773	-106.4264	858.5337	97.44215	-40.78344	876.7864	91.87114	-80.47922	870.491	64.5622	-76.79114	876.8952	88.97138	-33.9676	889.7504	78.93658	-70.50472	879.1724	54.25799	-65.7641	894.2879	75.64485	-29.24172	900.1512	70.55771	-59.79126	889.0907	53.18975	-56.57639	870.4944	81.15602	-120.5487	876.2631	77.54564	-122.3249	856.0337	58.48885	-56.50091	866.2595	52.10829	-44.44703	877.1492	51.29409	-37.56663
648	8.986111111	843.2638	7.228971	-4.791313	838.1557	34.42574	-48.261	844.0105	48.62642	-77.8738	859.1707	68.5569	-101.8564	839.2529	96.00151	-54.23851	856.3007	104.5439	-88.16161	865.8229	90.75511	-106.6285	857.9427	97.29803	-41.02572	876.2079	91.86387	-80.73454	870.0504	64.51941	-77.07685	876.3866	88.97686	-34.24884	889.2762	79.10466	-70.81831	878.8977	54.33547	-66.1098	893.8994	75.79374	-29.56469	899.74	70.68205	-60.11451	888.7786	53.24578	-56.92997	869.8995	80.86812	-121.131	875.6822	77.44288	-122.5433	855.635	58.3111	-56.79768	866.0121	51.96941	-44.79951	876.8348	51.22578	-37.9345
649	9	844.0629	7.057488	-5.444854	839.2327	33.96338	-49.12704	845.347	47.90574	-78.81008	860.6362	67.64251	-102.8709	840.194	95.50291	-55.48611	857.5248	103.8095	-89.32395	867.2019	89.90747	-107.6244	858.7847	96.92973	-42.14755	877.3768	91.23486	-81.66775	871.1624	63.92282	-77.86543	877.1994	88.69749	-35.18505	890.396	78.68761	-71.60724	880.0496	53.9158	-66.842	894.7096	75.58781	-30.29051	900.781	70.20861	-60.74943	889.7678	52.80703	-57.55341	871.4417	79.78624	-122.209	877.2311	76.59501	-123.4327	856.5775	57.85245	-57.66591	867.0107	51.62221	-45.61685	877.6541	50.92686	-38.6513
650	9.013888889	844.8315	6.834596	-5.886355	840.0257	33.41529	-49.76995	846.1994	47.21209	-79.5087	861.5046	66.92442	-103.5793	840.4713	94.91894	-56.52069	857.9895	103.1427	-90.2824	867.9107	89.25363	-108.4618	858.9658	96.59991	-43.07853	877.8602	90.79346	-82.43895	871.8261	63.46425	-78.47357	877.4112	88.57998	-35.95088	890.9353	78.52051	-72.23887	880.805	53.67598	-67.38873	895.0089	75.66139	-30.86508	901.3187	70.10123	-61.24284	890.3974	52.65078	-57.99892	872.3506	79.03549	-122.9153	878.1819	76.02414	-124.1839	857.1575	57.43393	-58.32265	867.6695	51.41863	-46.21942	878.1763	50.84428	-39.15906
651	9.027777778	845.204	6.744415	-6.009676	840.3324	33.1327	-50.00198	846.5444	46.76846	-79.80687	861.8807	66.42011	-103.9074	840.3406	94.6137	-56.97074	857.8074	103.0076	-90.71694	867.9166	89.20828	-108.8614	858.78	96.48111	-43.47788	877.8755	90.77123	-82.75513	871.9957	63.41401	-78.75087	877.2628	88.62522	-36.26497	890.9961	78.66469	-72.50166	881.0956	53.73505	-67.61341	894.941	75.85731	-31.079	901.3784	70.20393	-61.41277	890.5492	52.71295	-58.07943	872.7979	78.48039	-123.2349	878.3776	76.11361	-124.5712	857.2855	57.34435	-58.64225	867.9355	51.43967	-46.46369	878.3245	51.01886	-39.23112
652	9.041666667	845.7651	6.378323	-6.380967	840.9636	32.74587	-50.39316	847.2408	46.1624	-80.28383	862.7846	65.55167	-104.4637	841.4412	94.21578	-57.44532	858.8473	102.5402	-91.24041	868.844	88.72965	-109.4383	859.9223	95.96482	-43.99329	878.9442	90.24552	-83.30481	872.8591	62.92632	-79.3485	878.3616	87.98257	-36.80842	891.9699	77.96922	-73.07782	881.9289	53.09394	-68.19991	895.9563	75.09163	-31.64289	902.3275	69.41572	-61.98629	891.3586	52.01152	-58.65519	873.8597	77.42158	-123.8192	879.2096	75.63689	-125.2128	858.1212	56.945	-59.23364	868.7932	50.86628	-47.02776	879.1593	50.45918	-39.77837
653	9.055555556	846.3967	5.914539	-6.644023	841.9628	31.93113	-50.90224	848.473	45.00708	-80.89387	864.3448	64.09225	-105.1026	842.7371	93.33822	-58.46469	860.4666	101.2846	-92.18231	870.5768	87.29395	-110.1788	861.1096	95.14961	-44.87317	880.4839	89.21799	-83.98056	874.3064	61.92932	-79.95743	879.4668	87.17832	-37.46879	893.3787	76.90915	-73.55106	883.2484	52.07285	-68.65908	896.9828	74.28417	-32.0501	903.6564	68.4664	-62.30153	892.6047	51.10905	-59.00043	875.6924	75.73172	-124.4402	881.0432	74.05731	-125.7655	859.3703	56.07423	-59.95218	869.9055	49.95283	-47.60563	880.2313	49.73075	-40.22362
654	9.069444444	847.0209	5.248755	-6.642692	842.9905	30.76705	-51.22791	849.7045	43.50635	-81.31932	865.8788	62.29433	-105.5601	844.0958	92.07854	-59.49844	862.2342	99.40836	-93.13837	872.4161	85.08083	-110.8268	862.3575	93.98755	-45.77144	882.0741	87.558	-84.62846	875.7293	60.34073	-80.38806	880.6239	86.04321	-38.11824	894.7963	75.22127	-73.93658	884.4815	50.50561	-68.82373	898.05	73.15597	-32.40093	905.0019	67.04542	-62.53161	893.8492	49.77223	-59.13014	877.4695	73.70672	-124.889	882.9507	71.57859	-126.1375	860.5776	54.73825	-60.47267	870.931	48.69315	-47.87455	881.3284	48.70579	-40.4309
655	9.083333333	847.5707	4.431456	-6.322522	843.8319	29.67247	-51.09003	850.6168	42.21913	-81.24638	867.0435	60.75224	-105.5137	845.6491	90.90659	-59.80187	864.0272	97.62451	-93.43942	874.0323	82.92076	-110.9188	863.9064	92.72191	-46.05646	883.6492	85.8098	-84.81719	876.9725	58.69076	-80.45818	882.0755	84.64095	-38.31433	896.1943	73.37639	-74.01694	885.5738	48.81868	-68.77105	899.3551	71.61257	-32.4741	906.3236	65.2729	-62.55352	894.9832	48.13597	-59.08438	878.7774	71.97139	-124.8692	884.4106	69.10333	-126.054	861.7017	53.32586	-60.56806	871.9392	47.25215	-47.85674	882.4195	47.33583	-40.40075
